<?xml version="1.0" encoding="UTF-8"?>
<svg version="1.1" xmlns="http://www.w3.org/2000/svg" width="512" height="512">
<path d="M0 0 C4.29 0 8.58 0 13 0 C13 2.97 13 5.94 13 9 C14.05960938 8.63648437 14.05960938 8.63648437 15.140625 8.265625 C22.1349312 5.98105262 29.1003354 4.24745087 36.3125 2.8125 C37.14749023 2.64588867 37.98248047 2.47927734 38.84277344 2.30761719 C46.7093576 0.7855566 54.38231556 -0.15477851 62.390625 -0.203125 C63.16915833 -0.21004868 63.94769165 -0.21697235 64.74981689 -0.22410583 C67.24992972 -0.24130216 69.74983081 -0.24769346 72.25 -0.25 C73.10215088 -0.25133942 73.95430176 -0.25267883 74.83227539 -0.25405884 C90.18895905 -0.24881456 104.40866537 1.24884544 119.375 4.6875 C126.28119021 6.26605776 132.94694056 6.28941125 140 6 C140 7.98 140 9.96 140 12 C141.155 12.33 142.31 12.66 143.5 13 C163.62675809 19.74056521 182.258745 32.62829083 197.69921875 46.88671875 C199.77785234 48.79595605 201.90420746 50.61976644 204.0625 52.4375 C236.67977081 81.0834065 256.82350873 127.47326521 259.85498047 170.34570312 C262.6799437 222.05109078 248.23899588 270.72946709 214 310 C213.23945313 310.721875 212.47890625 311.44375 211.6953125 312.1875 C205.98959625 317.71047089 205.26494308 321.70546349 205.12109375 329.56640625 C204.75288606 340.00687599 200.08819454 348.3179657 192.625 355.375 C186.37535194 361.07922423 179.56724515 361.28290325 171.515625 361.2734375 C169.67447316 361.29373291 167.83332737 361.31458382 165.9921875 361.3359375 C163.1246222 361.35845508 160.25729789 361.37498505 157.38964844 361.38085938 C142.28902254 361.41509854 142.28902254 361.41509854 128 366 C127.67 370.62 127.34 375.24 127 380 C78.82 380 30.64 380 -19 380 C-19 369.77 -19 359.54 -19 349 C-20.65 348.34 -22.3 347.68 -24 347 C-36.69824666 339.44917971 -49.78007171 329.71444095 -60 319 C-60 318.34 -60 317.68 -60 317 C-60.66 317 -61.32 317 -62 317 C-64.58256945 314.57554705 -66.7519194 311.73153879 -69 309 C-69.40959961 308.50661133 -69.81919922 308.01322266 -70.24121094 307.50488281 C-77.67948251 298.49600222 -84.10422425 289.08124991 -90 279 C-90.35690918 278.39607422 -90.71381836 277.79214844 -91.08154297 277.16992188 C-115.21487237 235.86327446 -119.96545317 184.18678228 -108.3125 138.25 C-100.42727119 108.99289354 -86.01031022 83.59708138 -66 61 C-65.20464844 60.0821875 -64.40929687 59.164375 -63.58984375 58.21875 C-46.05098564 38.24310372 -23.32166112 25.07474009 0 13 C0 8.71 0 4.42 0 0 Z " fill="#FEFEFE" transform="translate(183,79)"/>
<path d="M0 0 C4.29 0 8.58 0 13 0 C13 2.97 13 5.94 13 9 C14.05960938 8.63648437 14.05960938 8.63648437 15.140625 8.265625 C22.1349312 5.98105262 29.1003354 4.24745087 36.3125 2.8125 C37.14749023 2.64588867 37.98248047 2.47927734 38.84277344 2.30761719 C51.43298577 -0.12839132 62.82181713 0 76 0 C76 14.52 76 29.04 76 44 C86.56 44 97.12 44 108 44 C108.02278516 56.71972528 108.04104859 69.43943653 108.05181217 82.15917778 C108.05698366 88.06836595 108.06397414 93.97753918 108.07543945 99.88671875 C108.08647588 105.61208361 108.09231973 111.3374343 108.09487724 117.06280899 C108.09669478 119.2239517 108.10024142 121.38509382 108.10573006 123.54623032 C108.14428094 139.38657235 107.71553881 155.17584839 107 171 C108.0149353 170.9779248 109.02987061 170.95584961 110.07556152 170.93310547 C113.41043389 170.86480916 116.74453118 170.81717246 120.07983398 170.78027344 C121.56302261 170.76016241 123.04613199 170.73286926 124.52905273 170.69824219 C126.66149435 170.64969648 128.79288777 170.62702805 130.92578125 170.609375 C132.20880127 170.58842773 133.49182129 170.56748047 134.8137207 170.54589844 C138 171 138 171 139.94555664 172.87353516 C141 175 141 175 140.9453125 177.4140625 C138.23956105 184.81574622 131.25635571 190.93048978 125.66796875 196.33984375 C123.29446144 198.70223393 121.1353429 201.23070352 118.94921875 203.765625 C116.66979306 206.37851376 114.33787647 208.93930021 112 211.5 C109.13528185 214.64083556 106.28814098 217.79100756 103.5 221 C100.71185902 224.20899244 97.86471815 227.35916444 95 230.5 C92.12922213 233.65222669 89.25990671 236.80432837 86.4375 240 C85.88964844 240.62003906 85.34179688 241.24007812 84.77734375 241.87890625 C83.40778216 243.51335008 82.09840999 245.19835667 80.81640625 246.90234375 C79.66978516 248.40474609 79.66978516 248.40474609 78.5 249.9375 C77.8090625 250.87464844 77.118125 251.81179688 76.40625 252.77734375 C73.24542328 255.6970035 71.27105939 256.07626892 67 256 C64.59375 254.41015625 64.59375 254.41015625 62.5 252.0625 C61.73429688 251.22460938 60.96859375 250.38671875 60.1796875 249.5234375 C59.10074219 248.27433594 59.10074219 248.27433594 58 247 C57.42507812 246.35289062 56.85015625 245.70578125 56.2578125 245.0390625 C55.14496917 243.77713011 54.04112512 242.50721787 52.9453125 241.23046875 C50.51276385 238.44134169 48.00821386 235.72082451 45.5 233 C42.46091151 229.69990744 39.43843431 226.39050112 36.5 223 C33.13677362 219.12182987 29.66664329 215.34472189 26.19189453 211.56689453 C22.49793376 207.54919054 18.83636523 203.50367717 15.19140625 199.44140625 C13.68133672 197.75906498 12.16812565 196.07954003 10.65234375 194.40234375 C9.12495557 192.71176218 7.60257614 191.01663798 6.0859375 189.31640625 C4.78012125 187.86631443 3.45469975 186.43338143 2.1015625 185.02734375 C-0.5759164 182.16759516 -1.88043878 180.69079814 -2.5625 176.75 C-2 174 -2 174 1 171 C10.9 171 20.8 171 31 171 C31 138.66 31 106.32 31 73 C24.565 73.99 24.565 73.99 18 75 C16.35 75 14.7 75 13 75 C13 87.87 13 100.74 13 114 C8.71 114 4.42 114 0 114 C-0.33 104.76 -0.66 95.52 -1 86 C-24.13995913 93.11998743 -39.06737464 104.81714125 -50.99609375 125.453125 C-64.51009477 151.84175495 -66.86386428 189.73676564 -58 218 C-52.04215393 236.27764183 -42.6859468 251.68454884 -31.19311523 266.96484375 C-21.39008661 280.04449744 -11.98986345 293.97135782 -8 310 C-7.66009033 311.24765137 -7.32018066 312.49530273 -6.9699707 313.78076172 C-5.5525577 320.22218507 -5.75206393 326.65731423 -5.8046875 333.22265625 C-5.80842561 334.57742604 -5.8112688 335.93219857 -5.81326294 337.28697205 C-5.82083668 340.82314748 -5.84042996 344.35915414 -5.8626709 347.89526367 C-5.88326557 351.51543903 -5.89229355 355.13564211 -5.90234375 358.75585938 C-5.92368294 365.83731454 -5.95881266 372.91862837 -6 380 C-10.29 380 -14.58 380 -19 380 C-19 369.77 -19 359.54 -19 349 C-20.65 348.34 -22.3 347.68 -24 347 C-36.69824666 339.44917971 -49.78007171 329.71444095 -60 319 C-60 318.34 -60 317.68 -60 317 C-60.66 317 -61.32 317 -62 317 C-64.58256945 314.57554705 -66.7519194 311.73153879 -69 309 C-69.40959961 308.50661133 -69.81919922 308.01322266 -70.24121094 307.50488281 C-77.67948251 298.49600222 -84.10422425 289.08124991 -90 279 C-90.35690918 278.39607422 -90.71381836 277.79214844 -91.08154297 277.16992188 C-115.21487237 235.86327446 -119.96545317 184.18678228 -108.3125 138.25 C-100.42727119 108.99289354 -86.01031022 83.59708138 -66 61 C-65.20464844 60.0821875 -64.40929687 59.164375 -63.58984375 58.21875 C-46.05098564 38.24310372 -23.32166112 25.07474009 0 13 C0 8.71 0 4.42 0 0 Z " fill="#E8E9EA" transform="translate(183,79)"/>
<path d="M0 0 C4.62 0 9.24 0 14 0 C14 1.98 14 3.96 14 6 C15.155 6.33 16.31 6.66 17.5 7 C37.62675809 13.74056521 56.258745 26.62829083 71.69921875 40.88671875 C73.77785234 42.79595605 75.90420746 44.61976644 78.0625 46.4375 C110.67977081 75.0834065 130.82350873 121.47326521 133.85498047 164.34570312 C136.6799437 216.05109078 122.23899588 264.72946709 88 304 C87.23945313 304.721875 86.47890625 305.44375 85.6953125 306.1875 C79.98959625 311.71047089 79.26494308 315.70546349 79.12109375 323.56640625 C78.75288606 334.00687599 74.08819454 342.3179657 66.625 349.375 C60.37535194 355.07922423 53.56724515 355.28290325 45.515625 355.2734375 C43.67447316 355.29373291 41.83332737 355.31458382 39.9921875 355.3359375 C37.1246222 355.35845508 34.25729789 355.37498505 31.38964844 355.38085938 C16.28902254 355.41509854 16.28902254 355.41509854 2 360 C1.67 364.62 1.34 369.24 1 374 C-3.29 374 -7.58 374 -12 374 C-12 367.4 -12 360.8 -12 354 C-13.98 354 -15.96 354 -18 354 C-18 350.04 -18 346.08 -18 342 C-16.66362236 341.99120064 -16.66362236 341.99120064 -15.30024719 341.98222351 C-6.89870955 341.92428787 1.50256249 341.8522061 9.90384197 341.76428509 C14.22290362 341.71958289 18.54187097 341.68032652 22.86108398 341.65356445 C27.03042164 341.62752984 31.19939641 341.58712656 35.36850929 341.53681374 C36.95804132 341.52014604 38.54763612 341.50863114 40.13724327 341.50238609 C42.36621394 341.49274366 44.59425648 341.46468452 46.82299805 341.43237305 C48.09096725 341.42126999 49.35893646 341.41016693 50.66532898 341.39872742 C54.24710757 340.97045329 56.12982878 340.13935088 59 338 C64.46589907 330.7535429 65.71382883 322.88135866 65 314 C64.67 313.175 64.34 312.35 64 311.5 C61.72544286 305.81360715 62.51108143 299.30242248 64.8125 293.71484375 C66.69101717 291.00211666 69.15697699 290.09334028 72.1484375 288.875 C74.21838806 288.0790561 74.21838806 288.0790561 75.625 285.75 C76.305625 284.88375 76.305625 284.88375 77 284 C80.1875 283.75 80.1875 283.75 83 284 C83 282.02 83 280.04 83 278 C72.44 278 61.88 278 51 278 C51 274.04 51 270.08 51 266 C51.86802246 265.97494385 52.73604492 265.9498877 53.63037109 265.92407227 C56.84713163 265.82900516 60.06372849 265.72976797 63.28027344 265.62768555 C64.6731259 265.58434154 66.06603131 265.54266604 67.45898438 265.50268555 C69.45976651 265.44497068 71.46035859 265.38078131 73.4609375 265.31640625 C74.66540527 265.27974854 75.86987305 265.24309082 77.11083984 265.20532227 C79.93996367 265.18947013 79.93996367 265.18947013 82 264 C82.33433896 257.78686764 81.40450855 253.44716891 79 247.75 C76 240.47972973 76 240.47972973 76 236 C76.96421875 235.60167969 77.9284375 235.20335937 78.921875 234.79296875 C80.19803957 234.25810566 81.47407445 233.72293304 82.75 233.1875 C83.38421875 232.92646484 84.0184375 232.66542969 84.671875 232.39648438 C90.8738745 229.99715636 90.8738745 229.99715636 94.85546875 225.0546875 C95.40027118 221.47821977 95.54110001 219.01655838 93.80859375 215.76171875 C91.98536316 213.38009735 90.04545702 211.19367854 88 209 C87.2884375 208.195625 86.576875 207.39125 85.84375 206.5625 C82.87386555 203.21615132 79.85169739 199.92013736 76.8125 196.63671875 C72.32998528 191.74597501 68.09943686 186.71261727 64 181.5 C63.51869629 180.88801758 63.03739258 180.27603516 62.54150391 179.64550781 C58.65667234 174.65532749 57.87999852 172.47522737 57.82421875 166.1484375 C57.80095872 164.72394456 57.77683919 163.29946546 57.75195312 161.875 C57.71734833 159.64867751 57.68779487 157.42284329 57.67407227 155.19628906 C57.57286818 141.43876147 55.90650119 127.98722558 49.25 115.6875 C48.90783447 115.03144775 48.56566895 114.37539551 48.21313477 113.69946289 C40.01444827 98.38288545 28.56270303 86.78135151 13 79 C13 92.53 13 106.06 13 120 C9.04 120 5.08 120 1 120 C0.67 80.4 0.34 40.8 0 0 Z " fill="#E8E9EA" transform="translate(309,85)"/>
<path d="M0 0 C4.29 0 8.58 0 13 0 C13 14.52 13 29.04 13 44 C23.56 44 34.12 44 45 44 C45.02278516 56.71972528 45.04104859 69.43943653 45.05181217 82.15917778 C45.05698366 88.06836595 45.06397414 93.97753918 45.07543945 99.88671875 C45.08647588 105.61208361 45.09231973 111.3374343 45.09487724 117.06280899 C45.09669478 119.2239517 45.10024142 121.38509382 45.10573006 123.54623032 C45.14428094 139.38657235 44.71553881 155.17584839 44 171 C45.0149353 170.9779248 46.02987061 170.95584961 47.07556152 170.93310547 C50.41043389 170.86480916 53.74453118 170.81717246 57.07983398 170.78027344 C58.56302261 170.76016241 60.04613199 170.73286926 61.52905273 170.69824219 C63.66149435 170.64969648 65.79288777 170.62702805 67.92578125 170.609375 C69.20880127 170.58842773 70.49182129 170.56748047 71.8137207 170.54589844 C75 171 75 171 76.94555664 172.87353516 C78 175 78 175 77.9453125 177.4140625 C75.23956105 184.81574622 68.25635571 190.93048978 62.66796875 196.33984375 C60.29446144 198.70223393 58.1353429 201.23070352 55.94921875 203.765625 C53.66979306 206.37851376 51.33787647 208.93930021 49 211.5 C46.13528185 214.64083556 43.28814098 217.79100756 40.5 221 C37.71185902 224.20899244 34.86471815 227.35916444 32 230.5 C29.12922213 233.65222669 26.25990671 236.80432837 23.4375 240 C22.88964844 240.62003906 22.34179688 241.24007812 21.77734375 241.87890625 C20.40778216 243.51335008 19.09840999 245.19835667 17.81640625 246.90234375 C17.05199219 247.90394531 16.28757812 248.90554688 15.5 249.9375 C14.8090625 250.87464844 14.118125 251.81179688 13.40625 252.77734375 C10.24542328 255.6970035 8.27105939 256.07626892 4 256 C1.59375 254.41015625 1.59375 254.41015625 -0.5 252.0625 C-1.26570313 251.22460938 -2.03140625 250.38671875 -2.8203125 249.5234375 C-3.53960937 248.69070313 -4.25890625 247.85796875 -5 247 C-5.57492188 246.35289062 -6.14984375 245.70578125 -6.7421875 245.0390625 C-7.85503083 243.77713011 -8.95887488 242.50721787 -10.0546875 241.23046875 C-12.48723615 238.44134169 -14.99178614 235.72082451 -17.5 233 C-20.53908849 229.69990744 -23.56156569 226.39050112 -26.5 223 C-29.86322638 219.12182987 -33.33335671 215.34472189 -36.80810547 211.56689453 C-40.50206624 207.54919054 -44.16363477 203.50367717 -47.80859375 199.44140625 C-49.31866328 197.75906498 -50.83187435 196.07954003 -52.34765625 194.40234375 C-53.87504443 192.71176218 -55.39742386 191.01663798 -56.9140625 189.31640625 C-58.21987875 187.86631443 -59.54530025 186.43338143 -60.8984375 185.02734375 C-63.5759164 182.16759516 -64.88043878 180.69079814 -65.5625 176.75 C-64.92058836 173.61176529 -64.5770384 172.83267141 -62 171 C-58.90551758 170.65942383 -58.90551758 170.65942383 -55.14453125 170.70703125 C-54.48289474 170.71127609 -53.82125824 170.71552094 -53.13957214 170.71989441 C-51.0301309 170.73666307 -48.92165154 170.77430901 -46.8125 170.8125 C-45.38087319 170.82754932 -43.94923138 170.8412373 -42.51757812 170.85351562 C-39.01140712 170.8865597 -35.50579746 170.93832833 -32 171 C-32.00222061 169.68505051 -32.00444122 168.37010101 -32.00672913 167.01530457 C-32.02738172 154.36059226 -32.0421682 141.70588354 -32.05181217 129.05115795 C-32.05693748 122.55192019 -32.06383537 116.05269647 -32.07543945 109.5534668 C-32.1354844 75.02221919 -31.84119559 40.52153047 -31 6 C-26.71 6 -22.42 6 -18 6 C-18 22.83 -18 39.66 -18 57 C-12.06 57 -6.12 57 0 57 C0 38.19 0 19.38 0 0 Z " fill="#A1D1FC" transform="translate(246,79)"/>
<path d="M0 0 C3.96 0 7.92 0 12 0 C12.07003681 22.35690921 12.12296203 44.71380037 12.15543652 67.07079697 C12.1709148 77.4512066 12.19202268 87.83154813 12.22631836 98.21191406 C12.25619129 107.25793574 12.27556801 116.3039081 12.28226548 125.34997773 C12.28618131 130.14117426 12.29540401 134.93222968 12.31719017 139.72338104 C12.33752205 144.23114703 12.34384049 148.73871351 12.33932304 153.246521 C12.34014972 154.90256076 12.34613502 156.55860707 12.35761642 158.21460724 C12.37250924 160.47305026 12.3689658 162.73073681 12.36076355 164.98919678 C12.36352893 166.25389675 12.36629431 167.51859673 12.36914349 168.82162094 C11.97437495 172.2206354 11.41981705 173.62339161 9 176 C6.63989258 176.54589844 6.63989258 176.54589844 3.89453125 176.609375 C2.91162109 176.64160156 1.92871094 176.67382812 0.91601562 176.70703125 C-0.10814453 176.72121094 -1.13230469 176.73539063 -2.1875 176.75 C-3.22326172 176.77964844 -4.25902344 176.80929687 -5.32617188 176.83984375 C-7.88419312 176.91057245 -10.44130158 176.96325257 -13 177 C-12.58226318 177.44279297 -12.16452637 177.88558594 -11.73413086 178.34179688 C-9.80044849 180.39314917 -7.86896851 182.44656317 -5.9375 184.5 C-5.28072266 185.19609375 -4.62394531 185.8921875 -3.94726562 186.609375 C-0.07694615 190.72754744 3.70317956 194.90622436 7.40795898 199.17382812 C9.56742413 201.65087142 11.78083099 204.07643384 14 206.5 C16.84524228 209.61907011 19.6719958 212.74755391 22.4375 215.9375 C27.17696564 221.39472125 32.10187767 226.68558156 37 232 C37.74507813 231.25363281 38.49015625 230.50726563 39.2578125 229.73828125 C40.83056036 228.16777377 42.4066315 226.60054435 43.9921875 225.04296875 C47.86365094 221.22772988 51.54114985 217.3186181 55.0859375 213.19921875 C57.35154569 210.59608118 59.67303552 208.04841276 62 205.5 C64.84524228 202.38092989 67.6719958 199.25244609 70.4375 196.0625 C73.98604955 191.96932893 77.66316 187.99714466 81.35717773 184.03540039 C83.98207106 181.23723206 83.98207106 181.23723206 86 178 C86.66 178 87.32 178 88 178 C88 177.34 88 176.68 88 176 C87.31897217 176.02094727 86.63794434 176.04189453 85.9362793 176.06347656 C82.85350278 176.14657452 79.77096163 176.19863954 76.6875 176.25 C75.61564453 176.28351563 74.54378906 176.31703125 73.43945312 176.3515625 C72.41142578 176.36445313 71.38339844 176.37734375 70.32421875 176.390625 C69.37635498 176.41157227 68.42849121 176.43251953 67.4519043 176.45410156 C65 176 65 176 63.36972427 174.28568935 C61.75938793 171.59848529 61.62731341 170.08824994 61.63250732 166.97486877 C61.62693817 165.9616304 61.62136902 164.94839203 61.6156311 163.90444946 C61.62484589 162.79846405 61.63406067 161.69247864 61.64355469 160.55297852 C61.64151031 159.38334061 61.63946594 158.2137027 61.63735962 157.00862122 C61.63486618 153.8013291 61.64576381 150.5944224 61.66288662 147.38718534 C61.67795988 144.01935712 61.67674975 140.65153245 61.67755127 137.28367615 C61.6812448 131.6185054 61.69620488 125.95345572 61.71875 120.28833008 C61.74749015 113.0525155 61.75796284 105.81679904 61.7624321 98.58093357 C61.76644015 92.32807897 61.77894666 86.07524507 61.79277897 79.82240558 C61.7968466 77.83031595 61.7997146 75.838224 61.80257416 73.84613228 C61.80951228 70.10124161 61.8231824 66.35643533 61.83886719 62.61157227 C61.83998505 61.52380493 61.84110291 60.4360376 61.84225464 59.31530762 C61.88338565 51.83399669 62.36058424 44.45454666 63 37 C67.29 37 71.58 37 76 37 C76.02338984 49.71972193 76.0410486 62.43943856 76.05181217 75.15917778 C76.05698366 81.06836595 76.06397414 86.97753918 76.07543945 92.88671875 C76.08647588 98.61208361 76.09231973 104.3374343 76.09487724 110.06280899 C76.09669478 112.2239517 76.10024142 114.38509382 76.10573006 116.54623032 C76.14428094 132.38657235 75.71553881 148.17584839 75 164 C76.0149353 163.9779248 77.02987061 163.95584961 78.07556152 163.93310547 C81.41043389 163.86480916 84.74453118 163.81717246 88.07983398 163.78027344 C89.56302261 163.76016241 91.04613199 163.73286926 92.52905273 163.69824219 C94.66149435 163.64969648 96.79288777 163.62702805 98.92578125 163.609375 C100.20880127 163.58842773 101.49182129 163.56748047 102.8137207 163.54589844 C106 164 106 164 107.94555664 165.87353516 C109 168 109 168 108.9453125 170.4140625 C106.23956105 177.81574622 99.25635571 183.93048978 93.66796875 189.33984375 C91.29446144 191.70223393 89.1353429 194.23070352 86.94921875 196.765625 C84.66979306 199.37851376 82.33787647 201.93930021 80 204.5 C77.13528185 207.64083556 74.28814098 210.79100756 71.5 214 C68.71185902 217.20899244 65.86471815 220.35916444 63 223.5 C60.12922213 226.65222669 57.25990671 229.80432837 54.4375 233 C53.88964844 233.62003906 53.34179688 234.24007812 52.77734375 234.87890625 C51.40778216 236.51335008 50.09840999 238.19835667 48.81640625 239.90234375 C48.05199219 240.90394531 47.28757812 241.90554688 46.5 242.9375 C45.8090625 243.87464844 45.118125 244.81179688 44.40625 245.77734375 C41.24542328 248.6970035 39.27105939 249.07626892 35 249 C32.59375 247.41015625 32.59375 247.41015625 30.5 245.0625 C29.73429687 244.22460938 28.96859375 243.38671875 28.1796875 242.5234375 C27.46039063 241.69070313 26.74109375 240.85796875 26 240 C25.42507812 239.35289062 24.85015625 238.70578125 24.2578125 238.0390625 C23.14496917 236.77713011 22.04112512 235.50721787 20.9453125 234.23046875 C18.51276385 231.44134169 16.00821386 228.72082451 13.5 226 C10.46091151 222.69990744 7.43843431 219.39050112 4.5 216 C1.13677362 212.12182987 -2.33335671 208.34472189 -5.80810547 204.56689453 C-9.50206624 200.54919054 -13.16363477 196.50367717 -16.80859375 192.44140625 C-18.31866328 190.75906498 -19.83187435 189.07954003 -21.34765625 187.40234375 C-22.87504443 185.71176218 -24.39742386 184.01663798 -25.9140625 182.31640625 C-27.21987875 180.86631443 -28.54530025 179.43338143 -29.8984375 178.02734375 C-32.5759164 175.16759516 -33.88043878 173.69079814 -34.5625 169.75 C-33.92058836 166.61176529 -33.5770384 165.83267141 -31 164 C-27.90551758 163.65942383 -27.90551758 163.65942383 -24.14453125 163.70703125 C-23.48289474 163.71127609 -22.82125824 163.71552094 -22.13957214 163.71989441 C-20.0301309 163.73666307 -17.92165154 163.77430901 -15.8125 163.8125 C-14.38087319 163.82754932 -12.94923138 163.8412373 -11.51757812 163.85351562 C-8.01140712 163.8865597 -4.50579746 163.93832833 -1 164 C-1.00222061 162.6828299 -1.00444122 161.36565979 -1.00672913 160.00857544 C-1.02737255 147.33883544 -1.0421641 134.66909903 -1.05181217 121.99934578 C-1.05693965 115.49223228 -1.06384201 108.98513278 -1.07543945 102.47802734 C-1.13475844 68.30495233 -0.85325123 34.16302653 0 0 Z " fill="#2D5384" transform="translate(215,86)"/>
<path d="M0 0 C4.29 0 8.58 0 13 0 C13 29.37 13 58.74 13 89 C8.71 89 4.42 89 0 89 C-0.33 79.76 -0.66 70.52 -1 61 C-24.13995913 68.11998743 -39.06737464 79.81714125 -50.99609375 100.453125 C-64.51009477 126.84175495 -66.86386428 164.73676564 -58 193 C-52.04215393 211.27764183 -42.6859468 226.68454884 -31.19311523 241.96484375 C-21.39008661 255.04449744 -11.98986345 268.97135782 -8 285 C-7.66009033 286.24765137 -7.32018066 287.49530273 -6.9699707 288.78076172 C-5.5525577 295.22218507 -5.75206393 301.65731423 -5.8046875 308.22265625 C-5.80842561 309.57742604 -5.8112688 310.93219857 -5.81326294 312.28697205 C-5.82083668 315.82314748 -5.84042996 319.35915414 -5.8626709 322.89526367 C-5.88326557 326.51543903 -5.89229355 330.13564211 -5.90234375 333.75585938 C-5.92368294 340.83731454 -5.95881266 347.91862837 -6 355 C-10.29 355 -14.58 355 -19 355 C-19.01458252 353.25050049 -19.02916504 351.50100098 -19.04418945 349.69848633 C-19.09619057 343.86699014 -19.16156649 338.03572282 -19.23571491 332.20447254 C-19.28012139 328.67483184 -19.31943923 325.14529871 -19.34643555 321.61547852 C-19.37783028 317.54154769 -19.43260204 313.46820315 -19.48828125 309.39453125 C-19.49467117 308.1492012 -19.5010611 306.90387115 -19.50764465 305.62080383 C-19.69164252 294.46368086 -21.37403629 283.85079626 -26.6875 273.9375 C-27.03707764 273.26468994 -27.38665527 272.59187988 -27.74682617 271.89868164 C-32.13548525 263.61817425 -37.46030738 256.06070842 -43.02270508 248.53833008 C-56.559108 230.23206783 -67.82663375 211.43950847 -73 189 C-73.27710815 187.90099365 -73.27710815 187.90099365 -73.55981445 186.77978516 C-75.49874745 177.99213771 -75.33694891 169.11253835 -75.31567383 160.15966797 C-75.31253033 157.40160948 -75.33597864 154.64464408 -75.36132812 151.88671875 C-75.45836905 124.87225111 -69.26333214 97.66232916 -51 77 C-50.5565625 76.41476563 -50.113125 75.82953125 -49.65625 75.2265625 C-38.04419649 60.14505397 -18.48415926 49.64059418 0 47 C0 31.49 0 15.98 0 0 Z " fill="#2D5384" transform="translate(183,104)"/>
<path d="M0 0 C4.62 0 9.24 0 14 0 C14 21.12 14 42.24 14 64 C19.28 66.97 24.56 69.94 30 73 C50.42024698 89.04447977 65.79392487 109.64591754 69.56640625 135.94921875 C69.97921738 139.87112787 70.05733145 143.74485138 70.0703125 147.6875 C70.08578125 149.47800781 70.08578125 149.47800781 70.1015625 151.3046875 C70.11718726 153.768192 70.10937264 156.23195663 70.078125 158.6953125 C70.20937218 167.37637629 71.90755948 171.86042555 78 178 C78.57476074 178.63260742 79.14952148 179.26521484 79.74169922 179.91699219 C81.42342689 181.76655209 83.14316668 183.57238529 84.875 185.375 C108.45348646 210.33953602 108.45348646 210.33953602 108.2734375 224.11328125 C107.6133214 231.08222123 104.13065901 235.41119275 98.87890625 239.7734375 C96.6851898 241.2055102 94.45403421 242.09920528 92 243 C92.28875 243.90621094 92.5775 244.81242188 92.875 245.74609375 C97.62070906 261.3179516 97.62070906 261.3179516 94.875 269.25 C92.0252053 273.4296989 88.89407029 276.36864324 84 278 C81.48631945 278.0846817 79.00130626 278.11601885 76.48828125 278.09765625 C75.76005661 278.0962413 75.03183197 278.09482635 74.28153992 278.09336853 C71.95848461 278.08777659 69.63552612 278.07522562 67.3125 278.0625 C65.73632952 278.05748396 64.16015752 278.05292123 62.58398438 278.04882812 C58.72261902 278.0378098 54.86132592 278.02055074 51 278 C51 274.04 51 270.08 51 266 C51.86802246 265.97494385 52.73604492 265.9498877 53.63037109 265.92407227 C56.84713163 265.82900516 60.06372849 265.72976797 63.28027344 265.62768555 C64.6731259 265.58434154 66.06603131 265.54266604 67.45898438 265.50268555 C69.45976651 265.44497068 71.46035859 265.38078131 73.4609375 265.31640625 C74.66540527 265.27974854 75.86987305 265.24309082 77.11083984 265.20532227 C79.93996367 265.18947013 79.93996367 265.18947013 82 264 C82.33433896 257.78686764 81.40450855 253.44716891 79 247.75 C76 240.47972973 76 240.47972973 76 236 C76.96421875 235.60167969 77.9284375 235.20335937 78.921875 234.79296875 C80.19803957 234.25810566 81.47407445 233.72293304 82.75 233.1875 C83.38421875 232.92646484 84.0184375 232.66542969 84.671875 232.39648438 C90.8738745 229.99715636 90.8738745 229.99715636 94.85546875 225.0546875 C95.40027118 221.47821977 95.54110001 219.01655838 93.80859375 215.76171875 C91.98536316 213.38009735 90.04545702 211.19367854 88 209 C87.2884375 208.195625 86.576875 207.39125 85.84375 206.5625 C82.87386555 203.21615132 79.85169739 199.92013736 76.8125 196.63671875 C72.32998528 191.74597501 68.09943686 186.71261727 64 181.5 C63.51869629 180.88801758 63.03739258 180.27603516 62.54150391 179.64550781 C58.65667234 174.65532749 57.87999852 172.47522737 57.82421875 166.1484375 C57.80095872 164.72394456 57.77683919 163.29946546 57.75195312 161.875 C57.71734833 159.64867751 57.68779487 157.42284329 57.67407227 155.19628906 C57.57286818 141.43876147 55.90650119 127.98722558 49.25 115.6875 C48.90783447 115.03144775 48.56566895 114.37539551 48.21313477 113.69946289 C40.01444827 98.38288545 28.56270303 86.78135151 13 79 C13 92.53 13 106.06 13 120 C9.04 120 5.08 120 1 120 C0.67 80.4 0.34 40.8 0 0 Z " fill="#2C5283" transform="translate(309,85)"/>
<path d="M0 0 C18.5431701 0 18.5431701 0 26.0625 1.25 C26.81853516 1.35957031 27.57457031 1.46914062 28.35351562 1.58203125 C36.13642289 2.80111813 43.27464413 4.9399051 51 7 C51 46.27 51 85.54 51 126 C50.67 126 50.34 126 50 126 C49.67 108.51 49.34 91.02 49 73 C43.39 72.01 37.78 71.02 32 70 C32 61.42 32 52.84 32 44 C21.44 44 10.88 44 0 44 C0 29.48 0 14.96 0 0 Z " fill="#E6E8E9" transform="translate(259,79)"/>
<path d="M0 0 C3.0390625 -0.29296875 3.0390625 -0.29296875 6.625 -0.1875 C7.81351562 -0.16042969 9.00203125 -0.13335937 10.2265625 -0.10546875 C11.14179688 -0.07066406 12.05703125 -0.03585937 13 0 C12.52340743 4.45455189 11.74637634 6.90592174 8.6875 10.1875 C8.09324219 10.84105469 7.49898438 11.49460937 6.88671875 12.16796875 C5 14 5 14 2.7578125 15.421875 C0.7336891 16.87706994 0.7336891 16.87706994 0.79296875 19.41015625 C0.92316406 20.28542969 1.05335938 21.16070312 1.1875 22.0625 C1.30480469 22.94035156 1.42210937 23.81820313 1.54296875 24.72265625 C1.90020157 27.01913728 1.90020157 27.01913728 3 29 C3.86437233 40.43631081 2.35527965 50.89693113 -5 60 C-11.12247533 66.49074452 -16.45614643 69.97459221 -25.47558594 70.25537109 C-27.14513075 70.26980658 -28.81476894 70.27540034 -30.484375 70.2734375 C-32.32552684 70.29373291 -34.16667263 70.31458382 -36.0078125 70.3359375 C-38.8753778 70.35845508 -41.74270211 70.37498505 -44.61035156 70.38085938 C-59.71097746 70.41509854 -59.71097746 70.41509854 -74 75 C-74.33 79.62 -74.66 84.24 -75 89 C-79.29 89 -83.58 89 -88 89 C-88 82.4 -88 75.8 -88 69 C-89.98 69 -91.96 69 -94 69 C-94 65.04 -94 61.08 -94 57 C-93.10908157 56.99413376 -92.21816315 56.98826752 -91.30024719 56.98222351 C-82.89870955 56.92428787 -74.49743751 56.8522061 -66.09615803 56.76428509 C-61.77709638 56.71958289 -57.45812903 56.68032652 -53.13891602 56.65356445 C-48.96957836 56.62752984 -44.80060359 56.58712656 -40.63149071 56.53681374 C-39.04195868 56.52014604 -37.45236388 56.50863114 -35.86275673 56.50238609 C-33.63378606 56.49274366 -31.40574352 56.46468452 -29.17700195 56.43237305 C-27.90903275 56.42126999 -26.64106354 56.41016693 -25.33467102 56.39872742 C-21.75289243 55.97045329 -19.87017122 55.13935088 -17 53 C-11.53410093 45.7535429 -10.28617117 37.88135866 -11 29 C-11.495 27.7625 -11.495 27.7625 -12 26.5 C-14.27442919 20.81392703 -13.48689326 14.30776186 -11.19140625 8.71875 C-9.31072397 6.00563458 -6.86299962 5.04080991 -3.83984375 3.88671875 C-1.64748288 3.02232837 -1.64748288 3.02232837 0 0 Z " fill="#2B5183" transform="translate(385,370)"/>
<path d="M0 0 C3.96 0 7.92 0 12 0 C12 33.33 12 66.66 12 101 C8.04 101 4.08 101 0 101 C0 67.67 0 34.34 0 0 Z " fill="#2A5082" transform="translate(247,79)"/>
<path d="M0 0 C4.62 0 9.24 0 14 0 C14 4.29 14 8.58 14 13 C9.38 13 4.76 13 0 13 C0 8.71 0 4.42 0 0 Z " fill="#2A5082" transform="translate(309,60)"/>
<path d="M0 0 C4.62 0 9.24 0 14 0 C14 4.29 14 8.58 14 13 C9.38 13 4.76 13 0 13 C0 8.71 0 4.42 0 0 Z " fill="#295081" transform="translate(214,60)"/>
<path d="M0 0 C4.29 0 8.58 0 13 0 C13 4.62 13 9.24 13 14 C8.71 14 4.42 14 0 14 C0 9.38 0 4.76 0 0 Z " fill="#2A5082" transform="translate(183,53)"/>
<path d="M0 0 C4.29 0 8.58 0 13 0 C13 4.29 13 8.58 13 13 C8.71 13 4.42 13 0 13 C0 8.71 0 4.42 0 0 Z " fill="#345887" transform="translate(183,205)"/>
<path d="M0 0 C4.29 0 8.58 0 13 0 C13 4.29 13 8.58 13 13 C8.71 13 4.42 13 0 13 C0 8.71 0 4.42 0 0 Z " fill="#345887" transform="translate(278,98)"/>
<path d="M0 0 C4.29 0 8.58 0 13 0 C13 4.29 13 8.58 13 13 C8.71 13 4.42 13 0 13 C0 8.71 0 4.42 0 0 Z " fill="#2D5283" transform="translate(183,79)"/>
<path d="M0 0 C4.62 0 9.24 0 14 0 C11.47524538 2.52475462 9.26502003 3.04307871 5.875 4.125 C4.77929688 4.47820312 3.68359375 4.83140625 2.5546875 5.1953125 C1.71164062 5.46085937 0.86859375 5.72640625 0 6 C0 4.02 0 2.04 0 0 Z " fill="#D9DDE2" transform="translate(310,439)"/>
</svg>
